<svg width="88" height="99" viewBox="0 0 88 99" fill="none" xmlns="http://www.w3.org/2000/svg">
<g clip-path="url(#clip0_22_2)">
<path d="M44 98.8163C42.6335 98.8163 41.3582 98.4532 40.1739 97.8177L28.058 90.6459C26.236 89.6473 27.147 89.2842 27.6936 89.1026C30.1532 88.2856 30.6087 88.104 33.1594 86.6515C33.4327 86.4699 33.7971 86.5607 34.0704 86.7423L43.3623 92.28C43.7267 92.4616 44.1822 92.4616 44.4555 92.28L80.8033 71.3093C81.1677 71.1278 81.3499 70.7646 81.3499 70.3107V28.4602C81.3499 28.0063 81.1677 27.6431 80.8033 27.4616L44.4555 6.5817C44.0911 6.40014 43.6356 6.40014 43.3623 6.5817L7.01449 27.4616C6.6501 27.6431 6.46791 28.0971 6.46791 28.4602V70.3107C6.46791 70.6739 6.6501 71.1278 7.01449 71.3093L16.9441 77.0286C22.3188 79.7521 25.6894 76.5747 25.6894 73.3973V32.0915C25.6894 31.5468 26.1449 31.0021 26.7826 31.0021H31.4286C31.9752 31.0021 32.5217 31.456 32.5217 32.0915V73.3973C32.5217 80.5691 28.6046 84.7451 21.7723 84.7451C19.677 84.7451 18.0373 84.7451 13.3913 82.4755L3.82609 77.0286C1.45756 75.6669 0 73.125 0 70.4015V28.551C0 25.8275 1.45756 23.2856 3.82609 21.9239L40.1739 0.953212C42.4513 -0.317737 45.5487 -0.317737 47.8261 0.953212L84.1739 21.9239C86.5424 23.2856 88 25.8275 88 28.551V70.4015C88 73.125 86.5424 75.6669 84.1739 77.0286L47.8261 97.9993C46.6418 98.544 45.2754 98.8163 44 98.8163ZM55.205 70.0384C39.2629 70.0384 35.9834 62.7758 35.9834 56.6026C35.9834 56.0579 36.4389 55.5132 37.0766 55.5132H41.8137C42.3602 55.5132 42.8157 55.8764 42.8157 56.4211C43.5445 61.2325 45.6398 63.5929 55.2961 63.5929C62.9482 63.5929 66.2277 61.868 66.2277 57.7828C66.2277 55.4225 65.3168 53.6976 53.383 52.5174C43.4534 51.5188 37.2588 49.3401 37.2588 41.442C37.2588 34.0887 43.4534 29.7311 53.8385 29.7311C65.499 29.7311 71.2381 33.7255 71.9669 42.4406C71.9669 42.713 71.8758 42.9853 71.6936 43.2577C71.5114 43.4392 71.2381 43.6208 70.9648 43.6208H66.2277C65.7723 43.6208 65.3168 43.2577 65.2257 42.8038C64.1325 37.8107 61.3085 36.1767 53.8385 36.1767C45.4576 36.1767 44.4555 39.0817 44.4555 41.2605C44.4555 43.8931 45.6398 44.7102 56.9358 46.1627C68.1408 47.6152 73.4244 49.7032 73.4244 57.5105C73.3333 65.4993 66.7743 70.0384 55.205 70.0384Z" fill="#539E43"/>
</g>
<defs>
<clipPath id="clip0_22_2">
<rect width="88" height="99" fill="white"/>
</clipPath>
</defs>
</svg>
